#!OML:ASF X:\für Bonn\!DataBase\2005_08_11_Bastian_Final\c3d\Bastian.ASF
:FULLY-SPECIFIED
:DEGREES
47
root 23.9174 17.1824 -5.36345 536.199 -104.629 -184.505
lowerback 49.8196 -0.407768 12.0163
upperback 19.9758 1.71384 5.77654
thorax 2.39707 -0.0299073 0.0905588
lowerneck 0.338342 -8.05504 -1.90702
upperneck -6.04192 -10.6159 5.19656
head -1.5527 -5.41369 2.07714
rclavicle -4.29375e-014 -5.24792e-014
rhumerus 26.3562 8.16139 -61.9991
rradius 17.7372
rwrist -2.67459
rhand -27.0309 -3.92372
rfingers 7.12502
rthumb -0.449903 -33.903
lclavicle -4.29375e-014 -5.24792e-014
lhumerus -11.4206 -30.8919 89.9149
lradius 35.2171
lwrist 24.4157
lhand -12.7299 -8.22865
lfingers 7.12502
lthumb 13.3535 21.3235
rfemur -19.8742 -5.17954 23.3752
rtibia 38.2157
rfoot -2.50162 -5.05361
rtoes 10.1396
lfemur -19.9302 1.06775 -18.6129
ltibia 36.996
lfoot -7.98754 -4.93787
ltoes -17.3826
48
root 23.9107 17.1738 -5.35596 536.419 -104.399 -184.296
lowerback 50.6597 -0.463247 12.2688
upperback 20.0232 1.79744 5.7168
thorax 2.38712 0.00632112 -0.0762205
lowerneck 0.304982 -8.06965 -1.84181
upperneck -6.70291 -10.6304 5.21586
head -1.76233 -5.43628 2.09817
rclavicle 1.74931e-014 4.77083e-015
rhumerus 27.3315 8.13427 -61.2081
rradius 17.8107
rwrist -3.00345
rhand -27.1564 -3.95052
rfingers 7.12502
rthumb -0.571113 -33.9295
lclavicle 1.74931e-014 4.77083e-015
lhumerus -11.3603 -30.9789 89.7227
lradius 35.7279
lwrist 24.6604
lhand -12.8039 -8.28489
lfingers 7.12502
lthumb 13.2822 21.2719
rfemur -20.5509 -5.31656 23.3743
rtibia 38.5955
rfoot -2.62397 -4.70118
rtoes 10.1637
lfemur -20.4091 1.20643 -18.705
ltibia 36.5644
lfoot -7.72738 -4.59757
ltoes -16.9449
49
root 23.9029 17.1648 -5.34783 536.566 -104.159 -183.953
lowerback 51.49 -0.509365 12.4994
upperback 20.0258 1.89852 5.64602
thorax 2.33396 0.0517459 -0.250289
lowerneck 0.290241 -8.09797 -1.75135
upperneck -7.32718 -10.669 5.15932
head -1.96949 -5.46975 2.09172
rclavicle 2.54444e-014 3.18055e-014
rhumerus 28.2392 7.95803 -60.4792
rradius 17.8567
rwrist -3.21506
rhand -27.2147 -3.97565
rfingers 7.12502
rthumb -0.627431 -33.9545
lclavicle 2.54444e-014 3.18055e-014
lhumerus -11.366 -31.0311 89.5841
lradius 36.2512
lwrist 24.8729
lhand -12.8964 -8.30801
lfingers 7.12502
lthumb 13.193 21.2545
rfemur -21.2993 -5.50301 23.3427
rtibia 39.0033
rfoot -2.77063 -4.26507
rtoes 10.2747
lfemur -20.9119 1.35828 -18.8246
ltibia 36.155
lfoot -7.55404 -4.28863
ltoes -16.2578
50
root 23.8966 17.1566 -5.33922 536.496 -103.93 -183.382
lowerback 52.365 -0.573427 12.7001
upperback 19.9997 1.98045 5.53483
thorax 2.24959 0.0891735 -0.445451
lowerneck 0.26378 -8.11987 -1.63504
upperneck -7.93815 -10.6984 5.12699
head -2.17237 -5.49993 2.08827
rclavicle 1.90833e-014 3.18055e-014
rhumerus 29.1495 7.65515 -59.8748
rradius 17.8638
rwrist -3.28664
rhand -27.2902 -3.98174
rfingers 7.12502
rthumb -0.70041 -33.9603
lclavicle 1.90833e-014 3.18055e-014
lhumerus -11.3715 -31.0326 89.3986
lradius 36.7442
lwrist 25.0551
lhand -12.9286 -8.37343
lfingers 7.12502
lthumb 13.162 21.1911
rfemur -22.0684 -5.66965 23.2593
rtibia 39.4236
rfoot -2.90486 -3.87565
rtoes 10.2033
lfemur -21.4109 1.43224 -19.0067
ltibia 35.755
lfoot -7.38714 -3.93437
ltoes -16.1997
51
root 23.8895 17.147 -5.32923 536.683 -103.716 -183.01
lowerback 53.1818 -0.655454 12.9365
upperback 19.9444 2.06466 5.43604
thorax 2.14983 0.130895 -0.644506
lowerneck 0.282278 -8.15366 -1.50481
upperneck -8.55524 -10.7484 5.04598
head -2.38989 -5.54022 2.07107
rclavicle -6.04305e-014 -3.26007e-014
rhumerus 30.0219 7.3556 -59.2455
rradius 17.8623
rwrist -3.35498
rhand -27.3815 -3.95717
rfingers 7.12502
rthumb -0.788513 -33.9355
lclavicle -6.04305e-014 -3.26007e-014
lhumerus -11.4403 -31.1115 89.2522
lradius 37.2647
lwrist 25.3355
lhand -12.9939 -8.41172
lfingers 7.12502
lthumb 13.0991 21.1569
rfemur -22.9111 -5.86308 23.2379
rtibia 39.8603
rfoot -3.05071 -3.45878
rtoes 10.077
lfemur -21.9817 1.58338 -19.1577
ltibia 35.3613
lfoot -7.19256 -3.66534
ltoes -16.7993
52
root 23.883 17.1375 -5.31941 536.776 -103.522 -182.507
lowerback 53.9769 -0.740974 13.1435
upperback 19.8784 2.13671 5.33162
thorax 2.04338 0.16653 -0.832914
lowerneck 0.302527 -8.16047 -1.40403
upperneck -9.17726 -10.7613 5.00865
head -2.60885 -5.56269 2.07318
rclavicle -2.22639e-014 4.6118e-014
rhumerus 30.8809 7.02766 -58.6144
rradius 17.8919
rwrist -3.39394
rhand -27.4481 -3.95959
rfingers 7.12502
rthumb -0.852913 -33.9376
lclavicle -2.22639e-014 4.6118e-014
lhumerus -11.5427 -31.0574 89.1298
lradius 37.7894
lwrist 25.4499
lhand -13.0177 -8.46535
lfingers 7.12502
lthumb 13.0761 21.1047
rfemur -23.7921 -6.01794 23.1893
rtibia 40.2987
rfoot -3.21223 -3.11302
rtoes 9.92611
lfemur -22.5984 1.73064 -19.3586
ltibia 34.9833
lfoot -6.99437 -3.39053
ltoes -17.8513
53
root 23.8757 17.1283 -5.30961 536.76 -103.376 -181.884
lowerback 54.7344 -0.843976 13.3428
upperback 19.8216 2.18407 5.22888
thorax 1.95543 0.192122 -1.0085
lowerneck 0.324708 -8.16104 -1.36123
upperneck -9.82899 -10.7629 5.04574
head -2.83353 -5.58104 2.11032
rclavicle -3.81667e-014 -6.20208e-014
rhumerus 31.727 6.57645 -58.0783
rradius 17.9173
rwrist -3.30926
rhand -27.5019 -3.95153
rfingers 7.12502
rthumb -0.904878 -33.9294
lclavicle -3.81667e-014 -6.20208e-014
lhumerus -11.6516 -31.0878 89.0015
lradius 38.3582
lwrist 25.6863
lhand -13.1096 -8.46666
lfingers 7.12502
lthumb 12.9876 21.1091
rfemur -24.6898 -6.19035 23.1119
rtibia 40.7419
rfoot -3.35556 -2.77333
rtoes 9.92452
lfemur -23.1947 1.88311 -19.598
ltibia 34.6356
lfoot -6.7689 -3.18934
ltoes -18.7542
54
root 23.8675 17.1197 -5.29821 536.861 -103.221 -181.347
lowerback 55.449 -0.969113 13.5622
upperback 19.7668 2.21244 5.10991
thorax 1.88139 0.213606 -1.20429
lowerneck 0.288354 -8.14569 -1.33266
upperneck -10.4098 -10.7452 5.07872
head -3.02554 -5.58811 2.14206
rclavicle -6.67916e-014 1.66979e-014
rhumerus 32.6244 6.05094 -57.6068
rradius 17.8703
rwrist -3.12712
rhand -27.4859 -3.92664
rfingers 7.12502
rthumb -0.889396 -33.9045
lclavicle -6.67916e-014 1.66979e-014
lhumerus -11.7264 -31.0507 88.855
lradius 38.8962
lwrist 25.8756
lhand -13.1345 -8.44871
lfingers 7.12502
lthumb 12.9635 21.1286
rfemur -25.6054 -6.3651 23.0571
rtibia 41.1797
rfoot -3.53062 -2.41661
rtoes 9.99497
lfemur -23.7947 1.99796 -19.8112
ltibia 34.3208
lfoot -6.57473 -2.94033
ltoes -19.3395
55
root 23.8596 17.1104 -5.28804 537.017 -103.085 -180.832
lowerback 56.1387 -1.08347 13.7569
upperback 19.7144 2.24229 5.00553
thorax 1.81343 0.233695 -1.37496
lowerneck 0.224723 -8.12561 -1.32191
upperneck -11.0077 -10.7224 5.12191
head -3.21876 -5.5933 2.17967
rclavicle -8.5875e-014 2.78299e-014
rhumerus 33.5239 5.55303 -57.1119
rradius 17.8904
rwrist -3.01998
rhand -27.4685 -3.96807
rfingers 7.12502
rthumb -0.872597 -33.946
lclavicle -8.5875e-014 2.78299e-014
lhumerus -11.7736 -31.0074 88.7177
lradius 39.3898
lwrist 26.0331
lhand -13.1795 -8.4916
lfingers 7.12502
lthumb 12.9201 21.0884
rfemur -26.5748 -6.53573 23.0275
rtibia 41.616
rfoot -3.68407 -2.10828
rtoes 9.85456
lfemur -24.441 2.12707 -20.0164
ltibia 34.0459
lfoot -6.3161 -2.75347
ltoes -19.4201
56
root 23.8504 17.1009 -5.2768 537.013 -102.967 -180.166
lowerback 56.8374 -1.22631 13.9459
upperback 19.6532 2.24348 4.88219
thorax 1.73908 0.242215 -1.55241
lowerneck 0.146903 -8.11664 -1.28732
upperneck -11.5801 -10.7185 5.12879
head -3.40499 -5.60752 2.20057
rclavicle -4.13472e-014 1.59028e-015
rhumerus 34.4192 4.94806 -56.7159
rradius 17.8548
rwrist -2.78129
rhand -27.4233 -3.90568
rfingers 7.12502
rthumb -0.828916 -33.8838
lclavicle -4.13472e-014 1.59028e-015
lhumerus -11.818 -30.963 88.5855
lradius 39.893
lwrist 26.2366
lhand -13.1521 -8.45519
lfingers 7.12502
lthumb 12.9466 21.1232
rfemur -27.5177 -6.74103 22.9599
rtibia 42.0317
rfoot -3.83153 -1.76086
rtoes 9.80005
lfemur -25.0865 2.2762 -20.282
ltibia 33.8244
lfoot -5.96011 -2.57509
ltoes -19.3522
57
root 23.8407 17.0944 -5.26498 537.041 -102.851 -179.489
lowerback 57.4777 -1.35286 14.1078
upperback 19.6061 2.24314 4.77112
thorax 1.68426 0.249573 -1.70719
lowerneck 0.00287469 -8.09518 -1.22879
upperneck -12.1114 -10.7026 5.09869
head -3.56992 -5.61496 2.19984
rclavicle 0 0
rhumerus 35.3681 4.20184 -56.4485
rradius 17.7731
rwrist -2.35236
rhand -27.2974 -3.90943
rfingers 7.12502
rthumb -0.707303 -33.888
lclavicle 0 0
lhumerus -11.7997 -30.9585 88.4526
lradius 40.2803
lwrist 26.4522
lhand -13.2348 -8.52977
lfingers 7.12502
lthumb 12.8669 21.0536
rfemur -28.4982 -6.95322 22.9008
rtibia 42.4436
rfoot -3.96536 -1.4083
rtoes 9.70877
lfemur -25.7867 2.4011 -20.5508
ltibia 33.6418
lfoot -5.49064 -2.35334
ltoes -18.7635
58
root 23.8311 17.0868 -5.25322 537.194 -102.761 -178.94
lowerback 58.0988 -1.50775 14.2968
upperback 19.5744 2.22041 4.66915
thorax 1.65442 0.248317 -1.8552
lowerneck -0.147313 -8.0875 -1.24061
upperneck -12.6324 -10.7081 5.08668
head -3.72566 -5.63141 2.21616
rclavicle -1.27222e-014 -1.59028e-014
rhumerus 36.3135 3.71134 -55.9307
rradius 17.8235
rwrist -2.30234
rhand -27.2074 -4.00786
rfingers 7.12502
rthumb -0.620394 -33.9867
lclavicle -1.27222e-014 -1.59028e-014
lhumerus -11.6467 -30.9155 88.3156
lradius 40.4798
lwrist 26.6592
lhand -13.2445 -8.6668
lfingers 7.12502
lthumb 12.8575 20.9172
rfemur -29.4683 -7.16368 22.8701
rtibia 42.8396
rfoot -4.11548 -1.07734
rtoes 9.78976
lfemur -26.5054 2.51693 -20.7846
ltibia 33.4962
lfoot -4.93564 -2.19397
ltoes -17.527
